<svg version="1.1" xmlns="http://www.w3.org/2000/svg" xmlns:xlink="http://www.w3.org/1999/xlink" viewBox="0 0 11.7305 9.76758">
 <g>
  <rect height="9.76758" opacity="0" width="11.7305" x="0" y="0"/>
  <path d="M4.25391 9.21094L6.9375 9.21094L6.9375 6.26367C6.9375 6.04102 6.79688 5.89453 6.56836 5.89453L4.62305 5.89453C4.40039 5.89453 4.25391 6.04102 4.25391 6.26367ZM0.457031 5.05664C0.603516 5.05664 0.726562 4.97461 0.832031 4.88672L5.44336 1.01367C5.49023 0.972656 5.54883 0.955078 5.5957 0.955078C5.64258 0.955078 5.69531 0.972656 5.74219 1.01367L10.3594 4.88672C10.4648 4.97461 10.5879 5.05664 10.7344 5.05664C11.0215 5.05664 11.1914 4.85156 11.1914 4.63477C11.1914 4.51758 11.1387 4.38867 11.0273 4.29492L6.18164 0.228516C5.99414 0.0761719 5.79492 0 5.5957 0C5.39648 0 5.19141 0.0761719 5.00977 0.228516L0.164062 4.29492C0.0527344 4.38867 0 4.51758 0 4.63477C0 4.85156 0.169922 5.05664 0.457031 5.05664ZM8.53125 2.41406L9.79688 3.48047L9.79688 1.35938C9.79688 1.13672 9.65039 0.996094 9.42773 0.996094L8.90039 0.996094C8.68359 0.996094 8.53125 1.13672 8.53125 1.35938ZM2.47852 9.76172L8.70703 9.76172C9.39258 9.76172 9.79688 9.36914 9.79688 8.70117L9.79688 3.60352L8.94727 3.04102L8.94727 8.48438C8.94727 8.75977 8.79492 8.91797 8.53125 8.91797L2.66016 8.91797C2.39648 8.91797 2.23828 8.75977 2.23828 8.48438L2.23828 3.04102L1.39453 3.60352L1.39453 8.70117C1.39453 9.36914 1.79883 9.76172 2.47852 9.76172Z" fill="white" fill-opacity="0.85"/>
 </g>
</svg>
