<svg version="1.1" xmlns="http://www.w3.org/2000/svg" xmlns:xlink="http://www.w3.org/1999/xlink" viewBox="0 0 8.625 8.58398">
 <g>
  <rect height="8.58398" opacity="0" width="8.625" x="0" y="0"/>
  <path d="M1.20703 8.57812L6.87891 8.57812C7.69922 8.57812 8.08594 8.33789 8.08594 7.81055C8.08594 6.60352 6.5625 4.83984 4.04297 4.83984C1.5293 4.83984 0 6.60352 0 7.81055C0 8.33789 0.392578 8.57812 1.20703 8.57812ZM0.943359 7.78711C0.878906 7.78711 0.84375 7.76953 0.84375 7.70508C0.84375 7.01953 1.96875 5.63086 4.04297 5.63086C6.11719 5.63086 7.24219 7.01953 7.24219 7.70508C7.24219 7.76953 7.20703 7.78711 7.14258 7.78711ZM4.04297 4.30078C5.15039 4.30078 6.05859 3.31055 6.05859 2.12109C6.05859 0.931641 5.16211 0 4.04297 0C2.93555 0 2.02734 0.949219 2.02734 2.13281C2.02734 3.31641 2.94141 4.30078 4.04297 4.30078ZM4.04297 3.51562C3.42188 3.51562 2.87109 2.90039 2.87109 2.13281C2.87109 1.36523 3.4043 0.791016 4.04297 0.791016C4.6875 0.791016 5.21484 1.35352 5.21484 2.12109C5.21484 2.88867 4.67578 3.51562 4.04297 3.51562Z" fill="white" fill-opacity="0.85"/>
 </g>
</svg>
