<svg version="1.1" xmlns="http://www.w3.org/2000/svg" xmlns:xlink="http://www.w3.org/1999/xlink" viewBox="0 0 10.459 9.9082">
 <g>
  <rect height="9.9082" opacity="0" width="10.459" x="0" y="0"/>
  <path d="M4.49414 9.90234L5.41992 9.90234C5.79492 9.90234 6.09375 9.67383 6.17578 9.32227L6.36914 8.47852L6.47461 8.44336L7.20117 8.89453C7.51758 9.08203 7.88672 9.04102 8.15039 8.77148L8.79492 8.13281C9.05859 7.86914 9.10547 7.49414 8.91211 7.18945L8.45508 6.45703L8.49023 6.36914L9.33398 6.17578C9.68555 6.09375 9.91992 5.78906 9.91992 5.41992L9.91992 4.51758C9.91992 4.14844 9.69141 3.84961 9.33398 3.76172L8.50195 3.55664L8.46094 3.46289L8.91797 2.73047C9.11133 2.41992 9.07031 2.05078 8.80078 1.78125L8.15625 1.14258C7.89844 0.878906 7.5293 0.832031 7.21289 1.01953L6.48047 1.46484L6.36914 1.42383L6.17578 0.580078C6.09375 0.228516 5.79492 0 5.41992 0L4.49414 0C4.11914 0 3.82617 0.228516 3.74414 0.580078L3.55078 1.42383L3.43359 1.46484L2.70117 1.01953C2.39062 0.832031 2.02148 0.878906 1.75781 1.14258L1.11914 1.78125C0.849609 2.05078 0.808594 2.41992 1.00195 2.73047L1.45312 3.46289L1.41211 3.55664L0.580078 3.76172C0.228516 3.84961 0 4.14844 0 4.51758L0 5.41992C0 5.78906 0.234375 6.09375 0.580078 6.17578L1.42383 6.36914L1.45898 6.45703L1.00781 7.18945C0.814453 7.49414 0.861328 7.86914 1.125 8.13281L1.76367 8.77148C2.02734 9.04102 2.40234 9.08203 2.71289 8.89453L3.44531 8.44336L3.55078 8.47852L3.74414 9.32227C3.82617 9.67383 4.11914 9.90234 4.49414 9.90234ZM4.57617 9.08789C4.51758 9.08789 4.48828 9.06445 4.48242 9.01172L4.19531 7.86328C3.89648 7.78711 3.62695 7.67578 3.42188 7.53516L2.4082 8.16211C2.36719 8.18555 2.32031 8.18555 2.28516 8.14453L1.75781 7.61133C1.7168 7.57617 1.7168 7.53516 1.74609 7.48828L2.36133 6.48047C2.25 6.28125 2.12109 6.01172 2.04492 5.71289L0.890625 5.43164C0.837891 5.42578 0.814453 5.39648 0.814453 5.33789L0.814453 4.58789C0.814453 4.52344 0.832031 4.50586 0.890625 4.48828L2.03906 4.21289C2.11523 3.89062 2.26758 3.60938 2.34961 3.43359L1.74023 2.43164C1.70508 2.37891 1.70508 2.33789 1.74609 2.29688L2.2793 1.77539C2.32031 1.74023 2.34961 1.73438 2.4082 1.75781L3.41016 2.36719C3.61523 2.24414 3.9082 2.12109 4.20117 2.03906L4.48242 0.890625C4.48828 0.837891 4.51758 0.814453 4.57617 0.814453L5.34375 0.814453C5.40234 0.814453 5.43164 0.837891 5.4375 0.890625L5.71875 2.05078C6.02344 2.12695 6.28711 2.25 6.49805 2.37305L7.51172 1.75781C7.56445 1.73438 7.59375 1.74023 7.64062 1.77539L8.17383 2.29688C8.20898 2.33789 8.21484 2.37891 8.17969 2.43164L7.56445 3.43359C7.65234 3.60938 7.79883 3.89062 7.875 4.21289L9.0293 4.48828C9.08789 4.50586 9.09961 4.52344 9.09961 4.58789L9.09961 5.33789C9.09961 5.39648 9.08203 5.42578 9.0293 5.43164L7.86914 5.71289C7.79883 6.01172 7.66992 6.28125 7.55273 6.48047L8.17383 7.48828C8.20312 7.53516 8.20312 7.57617 8.16211 7.61133L7.63477 8.14453C7.59375 8.18555 7.54688 8.18555 7.51172 8.16211L6.49219 7.53516C6.29297 7.67578 6.01758 7.78711 5.71875 7.86328L5.4375 9.01172C5.43164 9.06445 5.40234 9.08789 5.34375 9.08789ZM4.95703 6.69727C5.92383 6.69727 6.70312 5.91797 6.70312 4.95117C6.70312 3.98438 5.92383 3.20508 4.95703 3.20508C3.99023 3.20508 3.21094 3.98438 3.21094 4.95117C3.21094 5.91797 3.99023 6.69727 4.95703 6.69727ZM4.95703 5.88867C4.44141 5.88867 4.02539 5.4668 4.02539 4.95117C4.02539 4.43555 4.44141 4.01367 4.95703 4.01367C5.47266 4.01367 5.89453 4.43555 5.89453 4.95117C5.89453 5.4668 5.47266 5.88867 4.95703 5.88867Z" fill="white" fill-opacity="0.85"/>
 </g>
</svg>
