<svg version="1.1" xmlns="http://www.w3.org/2000/svg" xmlns:xlink="http://www.w3.org/1999/xlink" viewBox="0 0 11.5371 9.60352">
 <g>
  <rect height="9.60352" opacity="0" width="11.5371" x="0" y="0"/>
  <path d="M1.44141 9.60352L8.76562 9.60352C9.72656 9.60352 10.207 9.12305 10.207 8.17969L10.207 6.80273L9.35742 6.80273L9.35742 8.13867C9.35742 8.54883 9.14062 8.75391 8.75391 8.75391L1.45312 8.75391C1.06641 8.75391 0.849609 8.54883 0.849609 8.13867L0.849609 3.46875C0.849609 3.06445 1.06641 2.85352 1.45312 2.85352L8.75391 2.85352C9.14062 2.85352 9.35742 3.06445 9.35742 3.46875L9.35742 4.60547L10.207 4.60547L10.207 3.42773C10.207 2.48438 9.72656 2.00391 8.76562 2.00391L4.01953 2.00391C3.9375 2.00391 3.92578 1.93359 4.01367 1.91016L7.18945 1.01953C7.59375 0.896484 7.79883 1.02539 7.79883 1.40039L7.79883 2.36133L8.64844 2.28516L8.64844 1.48242C8.64844 0.316406 7.85156 0 6.80273 0.304688L1.04883 2.01562C0.322266 2.23242 0 2.66016 0 3.42773L0 8.17969C0 9.12891 0.486328 9.60352 1.44141 9.60352ZM8.40234 6.24023C8.64844 6.24023 8.85352 6.04102 8.85352 5.79492C8.85352 5.54297 8.64844 5.34375 8.40234 5.34375C8.15039 5.34375 7.95117 5.54297 7.95117 5.79492C7.95117 6.04102 8.15039 6.24023 8.40234 6.24023ZM8.29102 7.24219L10.0371 7.24219C10.6289 7.24219 10.998 6.80859 10.998 6.28125L10.998 5.31445C10.998 4.78711 10.6289 4.35938 10.0371 4.35938L8.29102 4.35938C7.40039 4.35938 6.77344 4.82812 6.77344 5.80078C6.77344 6.76758 7.40039 7.24219 8.29102 7.24219ZM8.34961 6.55078C7.76367 6.55078 7.5 6.25781 7.5 5.80078C7.5 5.33789 7.76367 5.05078 8.34961 5.05078L9.82617 5.05078C10.1426 5.05078 10.3066 5.22656 10.3066 5.52539L10.3066 6.07617C10.3066 6.375 10.1426 6.55078 9.82617 6.55078Z" fill="white" fill-opacity="0.85"/>
 </g>
</svg>
